<svg xmlns="http://www.w3.org/2000/svg" viewBox="0 0 500 500" width="100%" height="100%">
  <defs>
    <radialGradient id="bgGrad" cx="50%" cy="40%" r="65%">
      <stop offset="0%" stop-color="#1E293B" />
      <stop offset="60%" stop-color="#0F172A" />
      <stop offset="100%" stop-color="#020617" />
    </radialGradient>
    <linearGradient id="bulbDomeGrad" x1="0%" y1="0%" x2="100%" y2="100%">
      <stop offset="0%" stop-color="#FFFFFF" />
      <stop offset="50%" stop-color="#F8FAFC" />
      <stop offset="100%" stop-color="#E2E8F0" />
    </linearGradient>
    <linearGradient id="heatsinkGrad" x1="0%" y1="0%" x2="100%" y2="0%">
      <stop offset="0%" stop-color="#E2E8F0" />
      <stop offset="50%" stop-color="#FFFFFF" />
      <stop offset="100%" stop-color="#CBD5E1" />
    </linearGradient>
    <linearGradient id="metallicCapGrad" x1="0%" y1="0%" x2="100%" y2="0%">
      <stop offset="0%" stop-color="#94A3B8" />
      <stop offset="50%" stop-color="#F1F5F9" />
      <stop offset="100%" stop-color="#64748B" />
    </linearGradient>
    <linearGradient id="tubeGrad" x1="0%" y1="0%" x2="0%" y2="100%">
      <stop offset="0%" stop-color="#FFFFFF" />
      <stop offset="100%" stop-color="#E2E8F0" />
    </linearGradient>
    <linearGradient id="fanBodyGrad" x1="0%" y1="0%" x2="100%" y2="100%">
      <stop offset="0%" stop-color="#475569" />
      <stop offset="50%" stop-color="#1E293B" />
      <stop offset="100%" stop-color="#0F172A" />
    </linearGradient>
    <linearGradient id="bladeGrad" x1="0%" y1="0%" x2="100%" y2="100%">
      <stop offset="0%" stop-color="#64748B" />
      <stop offset="100%" stop-color="#334155" />
    </linearGradient>
    <linearGradient id="laptopScreenGrad" x1="0%" y1="0%" x2="100%" y2="100%">
      <stop offset="0%" stop-color="#0284C7" />
      <stop offset="50%" stop-color="#3B82F6" />
      <stop offset="100%" stop-color="#1D4ED8" />
    </linearGradient>
    <linearGradient id="laptopBaseGrad" x1="0%" y1="0%" x2="100%" y2="0%">
      <stop offset="0%" stop-color="#334155" />
      <stop offset="50%" stop-color="#64748B" />
      <stop offset="100%" stop-color="#1E293B" />
    </linearGradient>
    <linearGradient id="cableGrad1" x1="0%" y1="0%" x2="100%" y2="100%">
      <stop offset="0%" stop-color="#F59E0B" />
      <stop offset="100%" stop-color="#FEF08A" />
    </linearGradient>
    <linearGradient id="cableGrad2" x1="0%" y1="0%" x2="100%" y2="100%">
      <stop offset="0%" stop-color="#FEF08A" />
      <stop offset="100%" stop-color="#F59E0B" />
    </linearGradient>
    <linearGradient id="plateGrad" x1="0%" y1="0%" x2="100%" y2="100%">
      <stop offset="0%" stop-color="#FFFFFF" />
      <stop offset="100%" stop-color="#F1F5F9" />
    </linearGradient>
    <linearGradient id="rockerGrad" x1="0%" y1="0%" x2="0%" y2="100%">
      <stop offset="0%" stop-color="#FFFFFF" />
      <stop offset="100%" stop-color="#E2E8F0" />
    </linearGradient>
    <linearGradient id="kettleGrad" x1="0%" y1="0%" x2="100%" y2="0%">
      <stop offset="0%" stop-color="#94A3B8" />
      <stop offset="35%" stop-color="#FFFFFF" />
      <stop offset="70%" stop-color="#CBD5E1" />
      <stop offset="100%" stop-color="#64748B" />
    </linearGradient>
    <linearGradient id="inverterGrad" x1="0%" y1="0%" x2="100%" y2="100%">
      <stop offset="0%" stop-color="#334155" />
      <stop offset="50%" stop-color="#1E293B" />
      <stop offset="100%" stop-color="#0F172A" />
    </linearGradient>
    <linearGradient id="accGrad" x1="0%" y1="0%" x2="100%" y2="100%">
      <stop offset="0%" stop-color="#334155" />
      <stop offset="50%" stop-color="#1E293B" />
      <stop offset="100%" stop-color="#0F172A" />
    </linearGradient>
  </defs>

  <rect width="500" height="500" rx="28" fill="url(#bgGrad)" />
  <ellipse cx="250" cy="420" rx="160" ry="30" fill="#000000" opacity="0.45" filter="blur(14px)" />

  <g opacity="0.06">
    <line x1="50" y1="0" x2="50" y2="500" stroke="#FFFFFF" stroke-dasharray="4,4" />
    <line x1="150" y1="0" x2="150" y2="500" stroke="#FFFFFF" stroke-dasharray="4,4" />
    <line x1="250" y1="0" x2="250" y2="500" stroke="#FFFFFF" stroke-dasharray="4,4" />
    <line x1="350" y1="0" x2="350" y2="500" stroke="#FFFFFF" stroke-dasharray="4,4" />
    <line x1="450" y1="0" x2="450" y2="500" stroke="#FFFFFF" stroke-dasharray="4,4" />
    <line x1="0" y1="100" x2="500" y2="100" stroke="#FFFFFF" stroke-dasharray="4,4" />
    <line x1="0" y1="200" x2="500" y2="200" stroke="#FFFFFF" stroke-dasharray="4,4" />
    <line x1="0" y1="300" x2="500" y2="300" stroke="#FFFFFF" stroke-dasharray="4,4" />
    <line x1="0" y1="400" x2="500" y2="400" stroke="#FFFFFF" stroke-dasharray="4,4" />
  </g>

  
        <rect x="70" y="210" width="360" height="60" rx="30" fill="rgba(245, 158, 11, 0.25)" filter="blur(16px)" />
        <rect x="80" y="220" width="340" height="40" rx="20" fill="url(#tubeGrad)" stroke="#E2E8F0" stroke-width="2" />
        <rect x="110" y="232" width="280" height="16" rx="8" fill="#FFFFFF" opacity="0.95" />
        <rect x="75" y="218" width="25" height="44" rx="6" fill="#64748B" />
        <rect x="400" y="218" width="25" height="44" rx="6" fill="#64748B" />
        <rect x="140" y="205" width="16" height="14" rx="2" fill="#94A3B8" />
        <rect x="344" y="205" width="16" height="14" rx="2" fill="#94A3B8" />
        

  <g transform="translate(360, 24)">
    <rect width="116" height="26" rx="8" fill="#0F172A" stroke="#F59E0B" stroke-width="1" opacity="0.9" />
    <text x="58" y="17" fill="#F59E0B" font-family="system-ui, -apple-system, sans-serif" font-size="10" font-weight="700" text-anchor="middle">
      LIGHTING
    </text>
  </g>

  <g transform="translate(24, 436)">
    <rect width="452" height="40" rx="12" fill="#0F172A" stroke="#334155" stroke-width="1.2" opacity="0.95" />
    <circle cx="20" cy="20" r="6" fill="#F59E0B" />
    <text x="34" y="24" fill="#F8FAFC" font-family="system-ui, -apple-system, sans-serif" font-size="12" font-weight="700">
      Havells Glaze 20W T5 LED Batten Tub
    </text>
  </g>
</svg>